<svg xmlns:dc="http://purl.org/dc/elements/1.1/" xmlns:cc="http://creativecommons.org/ns#" xmlns:rdf="http://www.w3.org/1999/02/22-rdf-syntax-ns#" xmlns:svg="http://www.w3.org/2000/svg" xmlns="http://www.w3.org/2000/svg" xmlns:sodipodi="http://sodipodi.sourceforge.net/DTD/sodipodi-0.dtd" xmlns:inkscape="http://www.inkscape.org/namespaces/inkscape" version="1.1" x="0px" y="0px" viewBox="0 0 100 125"><g transform="translate(0,-952.36218)"><path style="color:#000000;enable-background:accumulate;" d="m 12,960.36216 0,84.00004 21,0 c 0,-7.3334 0,-14.6667 0,-22 12.16774,0 23.2835,0 34,0 0,7.3333 0,14.6666 0,22 l 21,0 0,-84.00004 z m 6,6 c 22.19097,0 44.96756,0 64,0 0,17.3149 0,35.13994 0,50.00004 -22.55535,0 -44.417,0 -64,0 0,-17.70598 0,-34.55815 0,-50.00004 z m 4,4 0,7 6,0 0,-7 z m 10,0 0,7 6,0 0,-7 z m 10,0 0,7 6,0 0,-7 z m 10,0 0,7 6,0 0,-7 z m 10,0 0,7 6,0 0,-7 z m 10,0 0,7 6,0 0,-7 z m -50,11 0,8 6,0 0,-8 z m 10,0 0,8 6,0 0,-8 z m 10,0 0,8 6,0 0,-8 z m 10,0 0,8 6,0 0,-8 z m 10,0 0,8 6,0 0,-8 z m 10,0 0,8 6,0 0,-8 z m -50,12 0,8.00004 6,0 0,-8.00004 z m 10,0 0,8.00004 6,0 0,-8.00004 z m 10,0 0,8.00004 6,0 0,-8.00004 z m 10,0 0,8.00004 6,0 0,-8.00004 z m 10,0 0,8.00004 6,0 0,-8.00004 z m 10,0 0,8.00004 6,0 0,-8.00004 z m -50,12.00004 0,7 6,0 0,-7 z m 10,0 0,7 6,0 0,-7 z m 10,0 0,7 6,0 0,-7 z m 10,0 0,7 6,0 0,-7 z m 10,0 0,7 6,0 0,-7 z m 10,0 0,7 6,0 0,-7 z m -35,21 0,18 11,0 0,-18 z m 15,0 0,18 11,0 0,-18 z m -6,7 c 0.55228,0 1,0.4477 1,1 0,0.5523 -0.44772,1 -1,1 -0.55228,0 -1,-0.4477 -1,-1 0,-0.5523 0.44772,-1 1,-1 z m 8,0 c 0.55228,0 1,0.4477 1,1 0,0.5523 -0.44772,1 -1,1 -0.55228,0 -1,-0.4477 -1,-1 0,-0.5523 0.44772,-1 1,-1 z" fill="#000000" stroke="none" marker="none" visibility="visible" display="inline" overflow="visible"/></g><text x="0" y="115" fill="#000000" font-size="5px" font-weight="bold" font-family="'Helvetica Neue', Helvetica, Arial-Unicode, Arial, Sans-serif">Created by zidney</text><text x="0" y="120" fill="#000000" font-size="5px" font-weight="bold" font-family="'Helvetica Neue', Helvetica, Arial-Unicode, Arial, Sans-serif">from the Noun Project</text></svg>