<svg xmlns="http://www.w3.org/2000/svg" viewBox="0 0 78 86"><g id="Layer_2" data-name="Layer 2"><g id="Layer_1-2" data-name="Layer 1"><path d="M.81,0A1,1,0,0,0,0,1V85a1,1,0,0,0,1,1H77a1,1,0,0,0,1-1V1a1,1,0,0,0-1-1ZM10,10h8v9H10Zm10,0h8v9H20Zm10,0h8v9H30Zm10,0h8v9H40Zm10,0h8v9H50Zm10,0h8v9H60ZM10,21h8V31H10Zm10,0h8V31H20Zm10,0h8V31H30Zm10,0h8V31H40Zm10,0h8V31H50Zm10,0h8V31H60ZM10,33h8V43H10Zm10,0h8V43H20Zm10,0h8V43H30Zm10,0h8V43H40Zm10,0h8V43H50Zm10,0h8V43H60ZM10,45h8v9H10Zm10,0h8v9H20Zm10,0h8v9H30Zm10,0h8v9H40Zm10,0h8v9H50Zm10,0h8v9H60ZM25,66H38V84H25Zm15,0H53V84H40Zm-5,8a1,1,0,1,0,1,1A1,1,0,0,0,35,74Zm8,0a1,1,0,1,0,1,1A1,1,0,0,0,43,74Z"/></g></g></svg>