<svg xmlns="http://www.w3.org/2000/svg" xmlns:xlink="http://www.w3.org/1999/xlink" version="1.1" x="0px" y="0px" viewBox="0 0 100 125" enable-background="new 0 0 100 100" xml:space="preserve"><circle cx="81" cy="63" r="6"/><circle cx="29" cy="63" r="6"/><path d="M97,34c-0.265-1.982-2-4-4-4H5c-2,0-4,2-4,4v27l19,2c0-4.972,4.029-9,9-9s9,4.028,9,9h34c0-4.972,4.028-9,9-9s9,4.028,9,9h9  V49C99,49,99,49,97,34z M17,46H7v-9h10V46z M32,46h-9v-9h9V46z M48,46H38v-9h10V46z M64,46H54v-9h10V46z M80,46H70v-9h10V46z M86,49  V37h5.4l1.5,12H86z"/><text x="0" y="115" fill="#000000" font-size="5px" font-weight="bold" font-family="'Helvetica Neue', Helvetica, Arial-Unicode, Arial, Sans-serif">Created by Jens Tärning</text><text x="0" y="120" fill="#000000" font-size="5px" font-weight="bold" font-family="'Helvetica Neue', Helvetica, Arial-Unicode, Arial, Sans-serif">from the Noun Project</text></svg>