<svg xmlns="http://www.w3.org/2000/svg" data-name="Layer 1" viewBox="0 0 100 125" x="0px" y="0px"><title>aeroplane_take-off</title><path d="M96.19,32.33c-4.52-3.19-11.4-1.43-16.07.26l-16.55,6a17.51,17.51,0,0,1-2.43.88A5.62,5.62,0,0,1,59,39.16l-9.3-1.83L27.15,32.93c-5.13-1-10.87-3.08-15.93-.74L44.07,45.58,31.61,50.07l-9.16-5.16L16.56,41.6A21.54,21.54,0,0,0,13.66,40c-1.93-.72-4.27.94-6,1.69L15.8,52.81C11,51.89,5.75,50.14,1,52.15l13.69,6.31-1.55.81v1.42s1.81,0,4.73-.05l2.57,6c1.69-.6,4-1,5.17-2.5a22.23,22.23,0,0,0,2-4c5.06-.39,10-1.27,15.08-1.79a98.26,98.26,0,0,0,13.81-2.69,13.18,13.18,0,0,1,2.39,2.21,17.82,17.82,0,0,1,1.2,3.39l2.85,8.06c2.12.24,6.17-1.75,6.17-1.75s6.19-15.83,8.54-22.12L90.28,41a26.86,26.86,0,0,0,3.45-1.37c1.78-.92,5.94-3.05,5.2-5.64C98.93,34,98.63,33,96.19,32.33Z"/><text x="0" y="115" fill="#000000" font-size="5px" font-weight="bold" font-family="'Helvetica Neue', Helvetica, Arial-Unicode, Arial, Sans-serif">Created by Davo Sime</text><text x="0" y="120" fill="#000000" font-size="5px" font-weight="bold" font-family="'Helvetica Neue', Helvetica, Arial-Unicode, Arial, Sans-serif">from the Noun Project</text></svg>