<svg xmlns:dc="http://purl.org/dc/elements/1.1/" xmlns:cc="http://creativecommons.org/ns#" xmlns:rdf="http://www.w3.org/1999/02/22-rdf-syntax-ns#" xmlns:svg="http://www.w3.org/2000/svg" xmlns="http://www.w3.org/2000/svg" xmlns:sodipodi="http://sodipodi.sourceforge.net/DTD/sodipodi-0.dtd" xmlns:inkscape="http://www.inkscape.org/namespaces/inkscape" version="1.1" x="0px" y="0px" viewBox="0 0 100 125"><g transform="translate(0,-952.36218)"><g transform="translate(9.996063,958.35431)"><path d="M 1.8070866,0 C 0.81496063,0.10629921 0,1.027559 0,2.019685 l 0,84.01181 c 0,1.027559 0.95669291,1.984252 1.984252,1.984252 l 76.003937,0 c 1.062992,0 2.019685,-0.956693 2.019685,-1.984252 l 0,-84.01181 C 80.007874,0.9566929 79.051181,0 77.988189,0 L 1.8070866,0 z m 10.2047244,12.011811 5.988189,0 0,7.015748 -5.988189,0 z m 9.992126,0 5.988189,0 0,7.015748 -5.988189,0 z m 9.992126,0 5.988189,0 0,7.015748 -5.988189,0 z m 9.992126,0 6.023622,0 0,7.015748 -6.023622,0 z m 10.027559,0 5.988189,0 0,7.015748 -5.988189,0 z m 9.992126,0 5.988189,0 0,7.015748 -5.988189,0 z m -49.996063,11.019685 5.988189,0 0,7.972441 -5.988189,0 z m 9.992126,0 5.988189,0 0,7.972441 -5.988189,0 z m 9.992126,0 5.988189,0 0,7.972441 -5.988189,0 z m 9.992126,0 6.023622,0 0,7.972441 -6.023622,0 z m 10.027559,0 5.988189,0 0,7.972441 -5.988189,0 z m 9.992126,0 5.988189,0 0,7.972441 -5.988189,0 z m -49.996063,11.976378 5.988189,0 0,8.007874 -5.988189,0 z m 9.992126,0 5.988189,0 0,8.007874 -5.988189,0 z m 9.992126,0 5.988189,0 0,8.007874 -5.988189,0 z m 9.992126,0 6.023622,0 0,8.007874 -6.023622,0 z m 10.027559,0 5.988189,0 0,8.007874 -5.988189,0 z m 9.992126,0 5.988189,0 0,8.007874 -5.988189,0 z m -49.996063,12.011811 5.988189,0 0,6.980314 -5.988189,0 z m 9.992126,0 5.988189,0 0,6.980314 -5.988189,0 z m 9.992126,0 5.988189,0 0,6.980314 -5.988189,0 z m 9.992126,0 6.023622,0 0,6.980314 -6.023622,0 z m 10.027559,0 5.988189,0 0,6.980314 -5.988189,0 z m 9.992126,0 5.988189,0 0,6.980314 -5.988189,0 z M 27,68.031495 l 10.984252,0 0,15.980315 -10.984252,0 z m 14.988189,0 11.019685,0 0,15.980315 -11.019685,0 z M 36,75.01181 c -0.566929,0 -0.992126,0.46063 -0.992126,0.992126 0,0.566929 0.425197,1.027559 0.992126,1.027559 0.566929,0 0.992126,-0.46063 0.992126,-1.027559 0,-0.531496 -0.425197,-0.992126 -0.992126,-0.992126 z m 8.007874,0 c -0.566929,0 -0.992126,0.46063 -0.992126,0.992126 0,0.566929 0.425197,1.027559 0.992126,1.027559 C 44.53937,77.031495 45,76.570865 45,76.003936 45,75.47244 44.53937,75.01181 44.007874,75.01181 z" style="" fill="#000000" fill-opacity="1" fill-rule="nonzero" stroke="none"/></g></g><text x="0" y="115" fill="#000000" font-size="5px" font-weight="bold" font-family="'Helvetica Neue', Helvetica, Arial-Unicode, Arial, Sans-serif">Created by zidney</text><text x="0" y="120" fill="#000000" font-size="5px" font-weight="bold" font-family="'Helvetica Neue', Helvetica, Arial-Unicode, Arial, Sans-serif">from the Noun Project</text></svg>