<svg xmlns:dc="http://purl.org/dc/elements/1.1/" xmlns:cc="http://creativecommons.org/ns#" xmlns:rdf="http://www.w3.org/1999/02/22-rdf-syntax-ns#" xmlns:svg="http://www.w3.org/2000/svg" xmlns="http://www.w3.org/2000/svg" xmlns:sodipodi="http://sodipodi.sourceforge.net/DTD/sodipodi-0.dtd" xmlns:inkscape="http://www.inkscape.org/namespaces/inkscape" version="1.1" x="0px" y="0px" viewBox="0 0 100 125"><g transform="translate(0,-952.36218)"><path d="m 11.812569,959.36216 c -0.4584,0.0875 -0.82072,0.5334 -0.8125,1 l 0,84.00004 c 5e-5,0.5236 0.47642,0.9999 1,1 l 75.999999,0 c 0.52358,-10e-5 0.99995,-0.4764 1,-1 l 0,-84.00004 c -5e-5,-0.52358 -0.47642,-0.99995 -1,-1 -25.39186,0 -50.80924,0 -76.187499,0 z m 9.1875,10 7.999999,0 0,9 -7.999999,0 z m 9.999999,0 8,0 0,9 -8,0 z m 10,0 8,0 0,9 -8,0 z m 10,0 8,0 0,9 -8,0 z m 10,0 8,0 0,9 -8,0 z m 10,0 8,0 0,9 -8,0 z m -49.999999,11 7.999999,0 0,10 -7.999999,0 z m 9.999999,0 8,0 0,10 -8,0 z m 10,0 8,0 0,10 -8,0 z m 10,0 8,0 0,10 -8,0 z m 10,0 8,0 0,10 -8,0 z m 10,0 8,0 0,10 -8,0 z m -49.999999,12 7.999999,0 0,10.00004 -7.999999,0 z m 9.999999,0 8,0 0,10.00004 -8,0 z m 10,0 8,0 0,10.00004 -8,0 z m 10,0 8,0 0,10.00004 -8,0 z m 10,0 8,0 0,10.00004 -8,0 z m 10,0 8,0 0,10.00004 -8,0 z m -49.999999,12.00004 7.999999,0 0,9 -7.999999,0 z m 9.999999,0 8,0 0,9 -8,0 z m 10,0 8,0 0,9 -8,0 z m 10,0 8,0 0,9 -8,0 z m 10,0 8,0 0,9 -8,0 z m 10,0 8,0 0,9 -8,0 z m -35,21 13,0 0,18 -13,0 z m 15,0 13,0 0,18 -13,0 z m -5,8 c -0.55228,0 -1,0.4477 -1,1 0,0.5523 0.44772,1 1,1 0.55228,0 1,-0.4477 1,-1 0,-0.5523 -0.44772,-1 -1,-1 z m 8,0 c -0.55228,0 -1,0.4477 -1,1 0,0.5523 0.44772,1 1,1 0.55228,0 1,-0.4477 1,-1 0,-0.5523 -0.44772,-1 -1,-1 z" style="text-indent:0;text-transform:none;direction:ltr;block-progression:tb;baseline-shift:baseline;color:#000000;enable-background:accumulate;" fill="#000000" fill-opacity="1" stroke="none" marker="none" visibility="visible" display="inline" overflow="visible"/></g><text x="0" y="115" fill="#000000" font-size="5px" font-weight="bold" font-family="'Helvetica Neue', Helvetica, Arial-Unicode, Arial, Sans-serif">Created by zidney</text><text x="0" y="120" fill="#000000" font-size="5px" font-weight="bold" font-family="'Helvetica Neue', Helvetica, Arial-Unicode, Arial, Sans-serif">from the Noun Project</text></svg>