<svg xmlns="http://www.w3.org/2000/svg" data-name="Layer 1" viewBox="0 0 100 125" x="0px" y="0px"><title>Vehicles</title><path d="M90.73,25.22H9.27A9.27,9.27,0,0,0,0,34.5v32a1.16,1.16,0,0,0,1.16,1.16H9.73a11.21,11.21,0,1,1,22.42,0H65.32a11.22,11.22,0,0,1,22.43,0H98.84A1.16,1.16,0,0,0,100,66.52v-32A9.27,9.27,0,0,0,90.73,25.22Zm-59.95,24H8.35V32.75H30.78Zm31.12,0H39.47V32.75H61.9Zm29.75,0H69.22V32.75H91.65Z"/><path d="M20.94,60.59A7.1,7.1,0,1,0,28,67.68,7.11,7.11,0,0,0,20.94,60.59Z"/><path d="M76.54,60.59a7.1,7.1,0,1,0,7.09,7.09A7.11,7.11,0,0,0,76.54,60.59Z"/><text x="0" y="115" fill="#000000" font-size="5px" font-weight="bold" font-family="'Helvetica Neue', Helvetica, Arial-Unicode, Arial, Sans-serif">Created by Rainbow Designs</text><text x="0" y="120" fill="#000000" font-size="5px" font-weight="bold" font-family="'Helvetica Neue', Helvetica, Arial-Unicode, Arial, Sans-serif">from the Noun Project</text></svg>