<svg xmlns="http://www.w3.org/2000/svg" viewBox="0 0 98.02 38.78"><g id="Layer_2" data-name="Layer 2"><g id="Layer_1-2" data-name="Layer 1"><path d="M95.19,1.77C90.67-1.42,83.79.34,79.12,2L62.57,8a16.41,16.41,0,0,1-2.43.88A5.56,5.56,0,0,1,58,8.6L48.7,6.77,26.15,2.37C21,1.37,15.28-.71,10.22,1.63L43.07,15,30.61,19.51l-9.16-5.16L15.56,11a22.05,22.05,0,0,0-2.9-1.6c-1.93-.72-4.27.94-6,1.69L14.8,22.25c-4.8-.92-10-2.67-14.8-.66L13.69,27.9l-1.55.81v1.42s1.81,0,4.73-.05l2.57,6c1.69-.6,4-1,5.17-2.5a22,22,0,0,0,2-4c5.06-.39,10-1.27,15.08-1.79A96.81,96.81,0,0,0,55.5,25.1a13.55,13.55,0,0,1,2.39,2.21,18,18,0,0,1,1.2,3.39l2.85,8.06C64.06,39,68.11,37,68.11,37s6.19-15.83,8.54-22.12l12.63-4.45a25.53,25.53,0,0,0,3.45-1.37c1.78-.92,5.94-3.05,5.2-5.64C97.93,3.44,97.63,2.44,95.19,1.77Z"/></g></g></svg>