<svg xmlns="http://www.w3.org/2000/svg" viewBox="0 0 76 84"><g id="Layer_2" data-name="Layer 2"><g id="Layer_1-2" data-name="Layer 1"><path d="M0,0V84H21V62H55V84H76V0ZM6,6H70V56H6Zm4,4v7h6V10Zm10,0v7h6V10Zm10,0v7h6V10Zm10,0v7h6V10Zm10,0v7h6V10Zm10,0v7h6V10ZM10,21v8h6V21Zm10,0v8h6V21Zm10,0v8h6V21Zm10,0v8h6V21Zm10,0v8h6V21Zm10,0v8h6V21ZM10,33v8h6V33Zm10,0v8h6V33Zm10,0v8h6V33Zm10,0v8h6V33Zm10,0v8h6V33Zm10,0v8h6V33ZM10,45v7h6V45Zm10,0v7h6V45Zm10,0v7h6V45Zm10,0v7h6V45Zm10,0v7h6V45Zm10,0v7h6V45ZM25,66V84H36V66Zm15,0V84H51V66Zm-6,7a1,1,0,1,1-1,1A1,1,0,0,1,34,73Zm8,0a1,1,0,1,1-1,1A1,1,0,0,1,42,73Z"/></g></g></svg>